<svg width="90.338" height="28.8" version="1.1" viewBox="0 0 23.902 7.62" xmlns="http://www.w3.org/2000/svg">
 <g transform="translate(-56.64 -144.39)" fill="currentColor">
  <path d="m80.094 149.68q0.44873 0 0.44873 0.31327 0 0.32173-0.44873 0.32173h-1.1261l-0.77047-0.7112v-2.6585q0-1.9219-0.59267-1.9219-0.60113 0-0.60113-0.32173 0-0.31327 0.60113-0.31327h0.93133q0.33867 0 0.33867 2.2437v2.6924l0.4064 0.36407q0.1778-8e-3 0.381-8e-3t0.4318 0z" style="stroke-width:.265"/>
  <path d="m76.82 146.08q0.33867 0 0.33867 2.9633 0 2.9633-0.33867 2.9633-0.33867 0-0.33867-1.4986 0-1.4901-0.127-0.889l-0.6604 0.77893h-1.0499l-0.762-0.5588-0.41487-0.99907v-1.27l0.41487-0.99907 0.762-0.57573h1.0837l0.635 0.635q0.05927 0.28787 0.08467 0.29633 0.03387 0 0.03387-0.28786 0-0.5588 0.33867-0.5588zm-0.95673 3.6661 0.61807-0.87207v-1.3801l-0.61807-0.84667h-1.1599l-0.5588 0.82974v1.4309l0.60113 0.8382z" style="stroke-width:.265"/>
  <path d="m72.457 148.95q0.32173 0 0.21167 0.64347l-0.889 0.80433h-1.3293l-0.92287-0.5588-0.51647-0.99907v-1.27l0.49953-1.0075 0.90593-0.56727h1.5071l0.92287 1.2277q-0.0508 1.1515-1.6002 1.1515-1.5579 0-1.4986 0.61806l0.72813 0.75354h1.4139q0.23707-0.79587 0.56727-0.79587zm-1.9812-2.3029-0.61807 0.59267q-0.127 0.52493 1.0583 0.52493t1.1515-0.54186l-0.5842-0.57574z" style="stroke-width:.265"/>
  <path d="m68.668 146.08q0.1016 0 0.08467 0.2286t-0.127 0.6096q-0.1016 0.37253-0.27093 0.82973-0.16087 0.44874-0.3556 0.90594-0.18627 0.44873-0.381 0.82973-0.18627 0.37253-0.34713 0.60113-0.1524 0.2286-0.24553 0.2286-0.09313 0-0.254-0.2286-0.1524-0.2286-0.34713-0.60113-0.18627-0.381-0.381-0.82973-0.18627-0.4572-0.3556-0.90594-0.16087-0.4572-0.26247-0.82973-0.1016-0.381-0.11853-0.6096-0.01693-0.2286 0.08467-0.2286 0.36407 0 0.99907 1.7018 0.62653 1.7018 1.27 0 0.635-1.7018 1.0075-1.7018z" style="stroke-width:.265"/>
  <path d="m64.366 146.08q0.33867 0 0.33867 2.1167 0 2.1167-0.3048 2.1167t-0.32173-0.0931l-0.0508-0.57573v-0.4572q0-0.14394-0.03387-0.0593-0.03387 0.0847-0.1016 0.39793l-0.67733 0.87207h-1.0499l-0.7366-0.5588-0.41487-0.99907v-1.27l0.42333-1.0075 0.77893-0.56727h1.0668l0.62653 0.72813q0.05927 0.29634 0.08467 0.29634 0.03387-8e-3 0.03387-0.32174 0-0.61806 0.33867-0.61806zm-0.97367 3.6661 0.635-0.87207v-1.3801l-0.635-0.8382h-1.1599l-0.54187 0.82973v1.4139l0.5842 0.84667z" style="stroke-width:.265"/>
  <path d="m60.34 149.5-0.9906 0.89747h-1.2869l-0.89747-0.5334-0.52493-0.99907v-1.3208l0.52493-1.0075 0.89747-0.54187h1.2785l0.9906 0.89747q0.1016 0.77046-0.2032 0.77046-0.31327 0-0.46567-0.49953l-0.5842-0.51647h-0.82127l-0.59267 0.37254-0.34713 0.70273v0.9652l0.34713 0.69427 0.59267 0.36407h0.82973l0.5842-0.51647q0.1524-0.508 0.4572-0.508 0.3048 0 0.21167 0.77893z" style="stroke-width:.265"/>
 </g>
</svg>
